<mxfile host="app.diagrams.net" agent="Mozilla/5.0 (Macintosh; Intel Mac OS X 10_15_7) AppleWebKit/537.36 (KHTML, like Gecko) Chrome/137.0.0.0 Safari/537.36" version="27.0.9">
  <diagram name="Page-1" id="bMwETEDJ3C-rzG7-VOgs">
    <mxGraphModel dx="3006" dy="1456" grid="1" gridSize="10" guides="1" tooltips="1" connect="1" arrows="1" fold="1" page="1" pageScale="1" pageWidth="850" pageHeight="1100" math="0" shadow="0">
      <root>
        <mxCell id="0" />
        <mxCell id="1" parent="0" />
        <mxCell id="rp7Qvh489p_CfaTDaqWi-4" style="edgeStyle=orthogonalEdgeStyle;rounded=0;orthogonalLoop=1;jettySize=auto;html=1;" edge="1" parent="1" source="rp7Qvh489p_CfaTDaqWi-1" target="rp7Qvh489p_CfaTDaqWi-3">
          <mxGeometry relative="1" as="geometry" />
        </mxCell>
        <mxCell id="rp7Qvh489p_CfaTDaqWi-7" style="edgeStyle=orthogonalEdgeStyle;rounded=0;orthogonalLoop=1;jettySize=auto;html=1;" edge="1" parent="1" source="rp7Qvh489p_CfaTDaqWi-1" target="rp7Qvh489p_CfaTDaqWi-5">
          <mxGeometry relative="1" as="geometry" />
        </mxCell>
        <mxCell id="rp7Qvh489p_CfaTDaqWi-9" style="edgeStyle=orthogonalEdgeStyle;rounded=0;orthogonalLoop=1;jettySize=auto;html=1;" edge="1" parent="1" source="rp7Qvh489p_CfaTDaqWi-1" target="rp7Qvh489p_CfaTDaqWi-8">
          <mxGeometry relative="1" as="geometry" />
        </mxCell>
        <mxCell id="rp7Qvh489p_CfaTDaqWi-1" value="vpc" style="text;html=1;align=center;verticalAlign=middle;resizable=0;points=[];autosize=1;strokeColor=none;fillColor=none;" vertex="1" parent="1">
          <mxGeometry x="350" y="118" width="40" height="30" as="geometry" />
        </mxCell>
        <mxCell id="rp7Qvh489p_CfaTDaqWi-20" style="edgeStyle=orthogonalEdgeStyle;rounded=0;orthogonalLoop=1;jettySize=auto;html=1;" edge="1" parent="1" source="rp7Qvh489p_CfaTDaqWi-3" target="rp7Qvh489p_CfaTDaqWi-19">
          <mxGeometry relative="1" as="geometry">
            <Array as="points">
              <mxPoint x="-170" y="293" />
            </Array>
          </mxGeometry>
        </mxCell>
        <mxCell id="rp7Qvh489p_CfaTDaqWi-33" style="edgeStyle=orthogonalEdgeStyle;rounded=0;orthogonalLoop=1;jettySize=auto;html=1;" edge="1" parent="1" source="rp7Qvh489p_CfaTDaqWi-3" target="rp7Qvh489p_CfaTDaqWi-10">
          <mxGeometry relative="1" as="geometry">
            <Array as="points">
              <mxPoint x="-60" y="293" />
            </Array>
          </mxGeometry>
        </mxCell>
        <mxCell id="rp7Qvh489p_CfaTDaqWi-3" value="public subnet" style="text;html=1;align=center;verticalAlign=middle;resizable=0;points=[];autosize=1;strokeColor=none;fillColor=none;" vertex="1" parent="1">
          <mxGeometry x="30" y="278" width="90" height="30" as="geometry" />
        </mxCell>
        <mxCell id="rp7Qvh489p_CfaTDaqWi-41" style="edgeStyle=orthogonalEdgeStyle;rounded=0;orthogonalLoop=1;jettySize=auto;html=1;" edge="1" parent="1" source="rp7Qvh489p_CfaTDaqWi-5" target="rp7Qvh489p_CfaTDaqWi-12">
          <mxGeometry relative="1" as="geometry">
            <Array as="points">
              <mxPoint x="260" y="293" />
            </Array>
          </mxGeometry>
        </mxCell>
        <mxCell id="rp7Qvh489p_CfaTDaqWi-52" style="edgeStyle=orthogonalEdgeStyle;rounded=0;orthogonalLoop=1;jettySize=auto;html=1;" edge="1" parent="1" source="rp7Qvh489p_CfaTDaqWi-5" target="rp7Qvh489p_CfaTDaqWi-51">
          <mxGeometry relative="1" as="geometry" />
        </mxCell>
        <mxCell id="rp7Qvh489p_CfaTDaqWi-5" value="app subnet" style="text;html=1;align=center;verticalAlign=middle;resizable=0;points=[];autosize=1;strokeColor=none;fillColor=none;" vertex="1" parent="1">
          <mxGeometry x="330" y="278" width="80" height="30" as="geometry" />
        </mxCell>
        <mxCell id="rp7Qvh489p_CfaTDaqWi-43" style="edgeStyle=orthogonalEdgeStyle;rounded=0;orthogonalLoop=1;jettySize=auto;html=1;" edge="1" parent="1" source="rp7Qvh489p_CfaTDaqWi-8" target="rp7Qvh489p_CfaTDaqWi-42">
          <mxGeometry relative="1" as="geometry" />
        </mxCell>
        <mxCell id="rp7Qvh489p_CfaTDaqWi-8" value="db subnet" style="text;html=1;align=center;verticalAlign=middle;resizable=0;points=[];autosize=1;strokeColor=none;fillColor=none;" vertex="1" parent="1">
          <mxGeometry x="650" y="278" width="80" height="30" as="geometry" />
        </mxCell>
        <mxCell id="rp7Qvh489p_CfaTDaqWi-10" value="internet gateway" style="text;html=1;align=center;verticalAlign=middle;resizable=0;points=[];autosize=1;strokeColor=none;fillColor=none;" vertex="1" parent="1">
          <mxGeometry x="-110" y="515" width="110" height="30" as="geometry" />
        </mxCell>
        <mxCell id="rp7Qvh489p_CfaTDaqWi-30" style="edgeStyle=orthogonalEdgeStyle;rounded=0;orthogonalLoop=1;jettySize=auto;html=1;" edge="1" parent="1" source="rp7Qvh489p_CfaTDaqWi-12" target="rp7Qvh489p_CfaTDaqWi-14">
          <mxGeometry relative="1" as="geometry">
            <Array as="points">
              <mxPoint x="250" y="353" />
              <mxPoint x="195" y="353" />
            </Array>
          </mxGeometry>
        </mxCell>
        <mxCell id="rp7Qvh489p_CfaTDaqWi-12" value="nat gateway" style="text;html=1;align=center;verticalAlign=middle;resizable=0;points=[];autosize=1;strokeColor=none;fillColor=none;" vertex="1" parent="1">
          <mxGeometry x="215" y="515" width="90" height="30" as="geometry" />
        </mxCell>
        <mxCell id="rp7Qvh489p_CfaTDaqWi-14" value="eip" style="text;html=1;align=center;verticalAlign=middle;resizable=0;points=[];autosize=1;strokeColor=none;fillColor=none;" vertex="1" parent="1">
          <mxGeometry x="175" y="160" width="40" height="30" as="geometry" />
        </mxCell>
        <mxCell id="rp7Qvh489p_CfaTDaqWi-31" style="edgeStyle=orthogonalEdgeStyle;rounded=0;orthogonalLoop=1;jettySize=auto;html=1;" edge="1" parent="1" source="rp7Qvh489p_CfaTDaqWi-17" target="rp7Qvh489p_CfaTDaqWi-29">
          <mxGeometry relative="1" as="geometry" />
        </mxCell>
        <mxCell id="rp7Qvh489p_CfaTDaqWi-17" value="route table" style="text;html=1;align=center;verticalAlign=middle;resizable=0;points=[];autosize=1;strokeColor=none;fillColor=none;" vertex="1" parent="1">
          <mxGeometry x="30" y="428" width="80" height="30" as="geometry" />
        </mxCell>
        <mxCell id="rp7Qvh489p_CfaTDaqWi-18" style="edgeStyle=orthogonalEdgeStyle;rounded=0;orthogonalLoop=1;jettySize=auto;html=1;entryX=0.572;entryY=-0.047;entryDx=0;entryDy=0;entryPerimeter=0;" edge="1" parent="1" source="rp7Qvh489p_CfaTDaqWi-3" target="rp7Qvh489p_CfaTDaqWi-17">
          <mxGeometry relative="1" as="geometry" />
        </mxCell>
        <mxCell id="rp7Qvh489p_CfaTDaqWi-25" style="edgeStyle=orthogonalEdgeStyle;rounded=0;orthogonalLoop=1;jettySize=auto;html=1;" edge="1" parent="1" source="rp7Qvh489p_CfaTDaqWi-19" target="rp7Qvh489p_CfaTDaqWi-23">
          <mxGeometry relative="1" as="geometry" />
        </mxCell>
        <mxCell id="rp7Qvh489p_CfaTDaqWi-27" style="edgeStyle=orthogonalEdgeStyle;rounded=0;orthogonalLoop=1;jettySize=auto;html=1;" edge="1" parent="1" source="rp7Qvh489p_CfaTDaqWi-19" target="rp7Qvh489p_CfaTDaqWi-26">
          <mxGeometry relative="1" as="geometry" />
        </mxCell>
        <mxCell id="rp7Qvh489p_CfaTDaqWi-19" value="network acess control list (nacl)" style="text;html=1;align=center;verticalAlign=middle;resizable=0;points=[];autosize=1;strokeColor=none;fillColor=none;" vertex="1" parent="1">
          <mxGeometry x="-265" y="428" width="190" height="30" as="geometry" />
        </mxCell>
        <mxCell id="rp7Qvh489p_CfaTDaqWi-23" value="&lt;span style=&quot;font-size: 11px; background-color: rgb(255, 255, 255);&quot;&gt;rules&lt;/span&gt;&lt;br style=&quot;font-size: 11px;&quot;&gt;&lt;span style=&quot;font-size: 11px; background-color: rgb(255, 255, 255);&quot;&gt;allow traffic to internet&lt;/span&gt;&lt;br style=&quot;font-size: 11px;&quot;&gt;&lt;span style=&quot;font-size: 11px; background-color: rgb(255, 255, 255);&quot;&gt;from the subnet&lt;/span&gt;&lt;br style=&quot;font-size: 11px;&quot;&gt;&lt;span style=&quot;font-size: 11px; background-color: rgb(255, 255, 255);&quot;&gt;on any port&lt;/span&gt;" style="text;html=1;align=center;verticalAlign=middle;resizable=0;points=[];autosize=1;strokeColor=none;fillColor=none;" vertex="1" parent="1">
          <mxGeometry x="-570" y="290" width="130" height="70" as="geometry" />
        </mxCell>
        <mxCell id="rp7Qvh489p_CfaTDaqWi-26" value="&lt;span style=&quot;font-size: 11px; background-color: rgb(255, 255, 255);&quot;&gt;rules&lt;/span&gt;&lt;br style=&quot;font-size: 11px;&quot;&gt;&lt;span style=&quot;font-size: 11px; background-color: rgb(255, 255, 255);&quot;&gt;allow traffic from internet&lt;/span&gt;&lt;br style=&quot;font-size: 11px;&quot;&gt;&lt;span style=&quot;font-size: 11px; background-color: rgb(255, 255, 255);&quot;&gt;to the subnet&lt;/span&gt;&lt;br style=&quot;font-size: 11px;&quot;&gt;&lt;span style=&quot;font-size: 11px; background-color: rgb(255, 255, 255);&quot;&gt;on any port&lt;/span&gt;" style="text;html=1;align=center;verticalAlign=middle;resizable=0;points=[];autosize=1;strokeColor=none;fillColor=none;" vertex="1" parent="1">
          <mxGeometry x="-575" y="515" width="140" height="70" as="geometry" />
        </mxCell>
        <mxCell id="rp7Qvh489p_CfaTDaqWi-29" value="route&lt;br&gt;default route to vpc&lt;br&gt;allow traffic from subnet to internet&lt;br&gt;&amp;nbsp;via internet gateway" style="text;html=1;align=center;verticalAlign=middle;resizable=0;points=[];autosize=1;strokeColor=none;fillColor=none;" vertex="1" parent="1">
          <mxGeometry x="-35" y="588" width="210" height="70" as="geometry" />
        </mxCell>
        <mxCell id="rp7Qvh489p_CfaTDaqWi-34" style="edgeStyle=orthogonalEdgeStyle;rounded=0;orthogonalLoop=1;jettySize=auto;html=1;entryX=0.423;entryY=0.914;entryDx=0;entryDy=0;entryPerimeter=0;" edge="1" parent="1" source="rp7Qvh489p_CfaTDaqWi-29" target="rp7Qvh489p_CfaTDaqWi-10">
          <mxGeometry relative="1" as="geometry">
            <Array as="points">
              <mxPoint x="60" y="569" />
              <mxPoint x="-63" y="569" />
            </Array>
          </mxGeometry>
        </mxCell>
        <mxCell id="rp7Qvh489p_CfaTDaqWi-35" style="edgeStyle=orthogonalEdgeStyle;rounded=0;orthogonalLoop=1;jettySize=auto;html=1;entryX=0.008;entryY=0.703;entryDx=0;entryDy=0;entryPerimeter=0;" edge="1" parent="1" source="rp7Qvh489p_CfaTDaqWi-3" target="rp7Qvh489p_CfaTDaqWi-12">
          <mxGeometry relative="1" as="geometry" />
        </mxCell>
        <mxCell id="rp7Qvh489p_CfaTDaqWi-39" style="edgeStyle=orthogonalEdgeStyle;rounded=0;orthogonalLoop=1;jettySize=auto;html=1;" edge="1" parent="1" source="rp7Qvh489p_CfaTDaqWi-36" target="rp7Qvh489p_CfaTDaqWi-38">
          <mxGeometry relative="1" as="geometry" />
        </mxCell>
        <mxCell id="rp7Qvh489p_CfaTDaqWi-36" value="route table" style="text;html=1;align=center;verticalAlign=middle;resizable=0;points=[];autosize=1;strokeColor=none;fillColor=none;" vertex="1" parent="1">
          <mxGeometry x="330" y="428" width="80" height="30" as="geometry" />
        </mxCell>
        <mxCell id="rp7Qvh489p_CfaTDaqWi-37" style="edgeStyle=orthogonalEdgeStyle;rounded=0;orthogonalLoop=1;jettySize=auto;html=1;entryX=0.509;entryY=-0.075;entryDx=0;entryDy=0;entryPerimeter=0;" edge="1" parent="1" source="rp7Qvh489p_CfaTDaqWi-5" target="rp7Qvh489p_CfaTDaqWi-36">
          <mxGeometry relative="1" as="geometry" />
        </mxCell>
        <mxCell id="rp7Qvh489p_CfaTDaqWi-40" style="edgeStyle=orthogonalEdgeStyle;rounded=0;orthogonalLoop=1;jettySize=auto;html=1;" edge="1" parent="1" source="rp7Qvh489p_CfaTDaqWi-38" target="rp7Qvh489p_CfaTDaqWi-12">
          <mxGeometry relative="1" as="geometry">
            <Array as="points">
              <mxPoint x="360" y="567" />
              <mxPoint x="260" y="567" />
            </Array>
          </mxGeometry>
        </mxCell>
        <mxCell id="rp7Qvh489p_CfaTDaqWi-38" value="route&lt;br&gt;default route to vpc&lt;br&gt;allow traffic from subnet to internet&lt;br&gt;&amp;nbsp;via nat gateway which is attached&lt;br&gt;&amp;nbsp;to the internet gateway" style="text;html=1;align=center;verticalAlign=middle;resizable=0;points=[];autosize=1;strokeColor=none;fillColor=none;" vertex="1" parent="1">
          <mxGeometry x="265" y="578" width="210" height="90" as="geometry" />
        </mxCell>
        <mxCell id="rp7Qvh489p_CfaTDaqWi-45" style="edgeStyle=orthogonalEdgeStyle;rounded=0;orthogonalLoop=1;jettySize=auto;html=1;" edge="1" parent="1" source="rp7Qvh489p_CfaTDaqWi-42" target="rp7Qvh489p_CfaTDaqWi-44">
          <mxGeometry relative="1" as="geometry" />
        </mxCell>
        <mxCell id="rp7Qvh489p_CfaTDaqWi-42" value="route table" style="text;html=1;align=center;verticalAlign=middle;resizable=0;points=[];autosize=1;strokeColor=none;fillColor=none;" vertex="1" parent="1">
          <mxGeometry x="650" y="428" width="80" height="30" as="geometry" />
        </mxCell>
        <mxCell id="rp7Qvh489p_CfaTDaqWi-44" value="route&lt;br&gt;default route to vpc" style="text;html=1;align=center;verticalAlign=middle;resizable=0;points=[];autosize=1;strokeColor=none;fillColor=none;" vertex="1" parent="1">
          <mxGeometry x="625" y="603" width="130" height="40" as="geometry" />
        </mxCell>
        <mxCell id="rp7Qvh489p_CfaTDaqWi-55" style="edgeStyle=orthogonalEdgeStyle;rounded=0;orthogonalLoop=1;jettySize=auto;html=1;" edge="1" parent="1" source="rp7Qvh489p_CfaTDaqWi-51" target="rp7Qvh489p_CfaTDaqWi-54">
          <mxGeometry relative="1" as="geometry" />
        </mxCell>
        <mxCell id="rp7Qvh489p_CfaTDaqWi-58" style="edgeStyle=orthogonalEdgeStyle;rounded=0;orthogonalLoop=1;jettySize=auto;html=1;" edge="1" parent="1" source="rp7Qvh489p_CfaTDaqWi-51" target="rp7Qvh489p_CfaTDaqWi-57">
          <mxGeometry relative="1" as="geometry" />
        </mxCell>
        <mxCell id="rp7Qvh489p_CfaTDaqWi-51" value="nacl" style="text;html=1;align=center;verticalAlign=middle;resizable=0;points=[];autosize=1;strokeColor=none;fillColor=none;" vertex="1" parent="1">
          <mxGeometry x="495" y="770" width="50" height="30" as="geometry" />
        </mxCell>
        <mxCell id="rp7Qvh489p_CfaTDaqWi-54" value="&lt;span style=&quot;font-size: 11px; background-color: rgb(255, 255, 255);&quot;&gt;rules&lt;/span&gt;&lt;br style=&quot;font-size: 11px;&quot;&gt;&lt;span style=&quot;font-size: 11px; background-color: rgb(255, 255, 255);&quot;&gt;allow traffic to public subnet&lt;/span&gt;&lt;br style=&quot;font-size: 11px;&quot;&gt;&lt;span style=&quot;font-size: 11px; background-color: rgb(255, 255, 255);&quot;&gt;from the subnet&lt;/span&gt;&lt;br style=&quot;font-size: 11px;&quot;&gt;&lt;span style=&quot;font-size: 11px; background-color: rgb(255, 255, 255);&quot;&gt;on 0-65535 port&lt;/span&gt;" style="text;html=1;align=center;verticalAlign=middle;resizable=0;points=[];autosize=1;strokeColor=none;fillColor=none;" vertex="1" parent="1">
          <mxGeometry x="245" y="870" width="160" height="70" as="geometry" />
        </mxCell>
        <mxCell id="rp7Qvh489p_CfaTDaqWi-57" value="&lt;span style=&quot;font-size: 11px; background-color: rgb(255, 255, 255);&quot;&gt;rules&lt;/span&gt;&lt;br style=&quot;font-size: 11px;&quot;&gt;&lt;span style=&quot;font-size: 11px; background-color: rgb(255, 255, 255);&quot;&gt;allow traffic from public subnet&lt;/span&gt;&lt;br style=&quot;font-size: 11px;&quot;&gt;&lt;span style=&quot;font-size: 11px; background-color: rgb(255, 255, 255);&quot;&gt;to the subnet&lt;/span&gt;&lt;br style=&quot;font-size: 11px;&quot;&gt;&lt;span style=&quot;font-size: 11px; background-color: rgb(255, 255, 255);&quot;&gt;on 0-65535 port&lt;/span&gt;" style="text;html=1;align=center;verticalAlign=middle;resizable=0;points=[];autosize=1;strokeColor=none;fillColor=none;" vertex="1" parent="1">
          <mxGeometry x="620" y="870" width="170" height="70" as="geometry" />
        </mxCell>
        <mxCell id="rp7Qvh489p_CfaTDaqWi-59" value="&lt;b&gt;vpc flow diagram&lt;/b&gt;" style="text;html=1;align=center;verticalAlign=middle;resizable=0;points=[];autosize=1;strokeColor=none;fillColor=none;" vertex="1" parent="1">
          <mxGeometry x="310" y="80" width="120" height="30" as="geometry" />
        </mxCell>
      </root>
    </mxGraphModel>
  </diagram>
</mxfile>
